<svg viewBox="0 0 1920 1080" xmlns="http://www.w3.org/2000/svg">
  <defs>
    <linearGradient id="bgGradient" x1="0%" y1="0%" x2="100%" y2="100%">
      <stop offset="0%" style="stop-color:#0F172A"/>
      <stop offset="100%" style="stop-color:#1E293B"/>
    </linearGradient>
    <linearGradient id="accentGradient" x1="0%" y1="0%" x2="100%" y2="0%">
      <stop offset="0%" style="stop-color:#14B8A6"/>
      <stop offset="100%" style="stop-color:#22C55E"/>
    </linearGradient>
    <linearGradient id="tealGradient" x1="0%" y1="0%" x2="0%" y2="100%">
      <stop offset="0%" style="stop-color:#14B8A6"/>
      <stop offset="100%" style="stop-color:#0D9488"/>
    </linearGradient>
    <linearGradient id="redGradient" x1="0%" y1="0%" x2="0%" y2="100%">
      <stop offset="0%" style="stop-color:#EF4444"/>
      <stop offset="100%" style="stop-color:#DC2626"/>
    </linearGradient>
    <linearGradient id="amberGradient" x1="0%" y1="0%" x2="0%" y2="100%">
      <stop offset="0%" style="stop-color:#F59E0B"/>
      <stop offset="100%" style="stop-color:#D97706"/>
    </linearGradient>
    <linearGradient id="greenGradient" x1="0%" y1="0%" x2="0%" y2="100%">
      <stop offset="0%" style="stop-color:#22C55E"/>
      <stop offset="100%" style="stop-color:#16A34A"/>
    </linearGradient>
  </defs>

  <!-- Background -->
  <rect width="1920" height="1080" fill="url(#bgGradient)"/>

  <!-- Title -->
  <text x="960" y="60" font-family="system-ui, -apple-system, sans-serif" font-size="48" font-weight="700" fill="#FFFFFF" text-anchor="middle">InvestRand Business Model vs Technology</text>
  <rect x="760" y="75" width="400" height="4" fill="url(#accentGradient)" rx="2"/>
  <text x="960" y="110" font-family="system-ui, -apple-system, sans-serif" font-size="24" fill="#9CA3AF" text-anchor="middle">Property Sourcing Marketplace — 5% Fee (min R30,000) per Transaction</text>

  <!-- Row 1: Business Process Flow -->
  <text x="100" y="170" font-family="system-ui, -apple-system, sans-serif" font-size="28" font-weight="600" fill="#14B8A6">BUSINESS PROCESS</text>

  <!-- Step 1: Source -->
  <rect x="100" y="190" width="200" height="100" fill="#1E293B" rx="12" stroke="#14B8A6" stroke-width="2"/>
  <text x="200" y="235" font-family="system-ui, -apple-system, sans-serif" font-size="20" font-weight="600" fill="#FFFFFF" text-anchor="middle">1. SOURCE</text>
  <text x="200" y="265" font-family="system-ui, -apple-system, sans-serif" font-size="16" fill="#9CA3AF" text-anchor="middle">Find property</text>

  <!-- Arrow -->
  <line x1="300" y1="240" x2="340" y2="240" stroke="#14B8A6" stroke-width="3"/>
  <polygon points="340,235 355,240 340,245" fill="#14B8A6"/>

  <!-- Step 2: List -->
  <rect x="360" y="190" width="200" height="100" fill="#1E293B" rx="12" stroke="#14B8A6" stroke-width="2"/>
  <text x="460" y="235" font-family="system-ui, -apple-system, sans-serif" font-size="20" font-weight="600" fill="#FFFFFF" text-anchor="middle">2. LIST</text>
  <text x="460" y="265" font-family="system-ui, -apple-system, sans-serif" font-size="16" fill="#9CA3AF" text-anchor="middle">Add to platform</text>

  <!-- Arrow -->
  <line x1="560" y1="240" x2="600" y2="240" stroke="#14B8A6" stroke-width="3"/>
  <polygon points="600,235 615,240 600,245" fill="#14B8A6"/>

  <!-- Step 3: Approve -->
  <rect x="620" y="190" width="200" height="100" fill="#1E293B" rx="12" stroke="#14B8A6" stroke-width="2"/>
  <text x="720" y="235" font-family="system-ui, -apple-system, sans-serif" font-size="20" font-weight="600" fill="#FFFFFF" text-anchor="middle">3. APPROVE</text>
  <text x="720" y="265" font-family="system-ui, -apple-system, sans-serif" font-size="16" fill="#9CA3AF" text-anchor="middle">Admin review</text>

  <!-- Arrow -->
  <line x1="820" y1="240" x2="860" y2="240" stroke="#14B8A6" stroke-width="3"/>
  <polygon points="860,235 875,240 860,245" fill="#14B8A6"/>

  <!-- Step 4: Discover -->
  <rect x="880" y="190" width="200" height="100" fill="#1E293B" rx="12" stroke="#14B8A6" stroke-width="2"/>
  <text x="980" y="235" font-family="system-ui, -apple-system, sans-serif" font-size="20" font-weight="600" fill="#FFFFFF" text-anchor="middle">4. DISCOVER</text>
  <text x="980" y="265" font-family="system-ui, -apple-system, sans-serif" font-size="16" fill="#9CA3AF" text-anchor="middle">Investor browses</text>

  <!-- Arrow -->
  <line x1="1080" y1="240" x2="1120" y2="240" stroke="#F59E0B" stroke-width="3" stroke-dasharray="8,4"/>
  <polygon points="1120,235 1135,240 1120,245" fill="#F59E0B"/>

  <!-- Step 5: Interest (GAP) -->
  <rect x="1140" y="190" width="200" height="100" fill="#1E293B" rx="12" stroke="#F59E0B" stroke-width="2" stroke-dasharray="8,4"/>
  <text x="1240" y="235" font-family="system-ui, -apple-system, sans-serif" font-size="20" font-weight="600" fill="#F59E0B" text-anchor="middle">5. INTEREST</text>
  <text x="1240" y="265" font-family="system-ui, -apple-system, sans-serif" font-size="16" fill="#9CA3AF" text-anchor="middle">Express interest</text>

  <!-- Arrow -->
  <line x1="1340" y1="240" x2="1380" y2="240" stroke="#EF4444" stroke-width="3" stroke-dasharray="8,4"/>
  <polygon points="1380,235 1395,240 1380,245" fill="#EF4444"/>

  <!-- Step 6: Deal (GAP) -->
  <rect x="1400" y="190" width="200" height="100" fill="#1E293B" rx="12" stroke="#EF4444" stroke-width="2" stroke-dasharray="8,4"/>
  <text x="1500" y="235" font-family="system-ui, -apple-system, sans-serif" font-size="20" font-weight="600" fill="#EF4444" text-anchor="middle">6. DEAL</text>
  <text x="1500" y="265" font-family="system-ui, -apple-system, sans-serif" font-size="16" fill="#9CA3AF" text-anchor="middle">Close transaction</text>

  <!-- Arrow -->
  <line x1="1600" y1="240" x2="1640" y2="240" stroke="#EF4444" stroke-width="3" stroke-dasharray="8,4"/>
  <polygon points="1640,235 1655,240 1640,245" fill="#EF4444"/>

  <!-- Step 7: Revenue (GAP) -->
  <rect x="1660" y="190" width="200" height="100" fill="#1E293B" rx="12" stroke="#EF4444" stroke-width="2" stroke-dasharray="8,4"/>
  <text x="1760" y="235" font-family="system-ui, -apple-system, sans-serif" font-size="20" font-weight="600" fill="#EF4444" text-anchor="middle">7. REVENUE</text>
  <text x="1760" y="265" font-family="system-ui, -apple-system, sans-serif" font-size="16" fill="#9CA3AF" text-anchor="middle">Collect 5% fee</text>

  <!-- Legend -->
  <rect x="1660" y="130" width="20" height="20" fill="#1E293B" rx="4" stroke="#14B8A6" stroke-width="2"/>
  <text x="1690" y="146" font-family="system-ui, -apple-system, sans-serif" font-size="14" fill="#9CA3AF">Working</text>
  <rect x="1760" y="130" width="20" height="20" fill="#1E293B" rx="4" stroke="#EF4444" stroke-width="2" stroke-dasharray="4,2"/>
  <text x="1790" y="146" font-family="system-ui, -apple-system, sans-serif" font-size="14" fill="#9CA3AF">Gap</text>

  <!-- Divider -->
  <line x1="100" y1="320" x2="1820" y2="320" stroke="#475569" stroke-width="1"/>

  <!-- Row 2: Three columns - Current Platform, Develutions Building, Business Needs -->

  <!-- Column 1: Current Platform -->
  <rect x="100" y="340" width="540" height="700" fill="#1E293B" rx="16"/>
  <rect x="100" y="340" width="540" height="60" fill="url(#amberGradient)" rx="16"/>
  <rect x="100" y="390" width="540" height="10" fill="#1E293B"/>
  <text x="370" y="382" font-family="system-ui, -apple-system, sans-serif" font-size="24" font-weight="700" fill="#FFFFFF" text-anchor="middle">CURRENT PLATFORM</text>
  <text x="370" y="430" font-family="system-ui, -apple-system, sans-serif" font-size="18" fill="#9CA3AF" text-anchor="middle">Vue 2 / Django 4.2</text>

  <!-- Working Features -->
  <text x="130" y="480" font-family="system-ui, -apple-system, sans-serif" font-size="20" font-weight="600" fill="#22C55E">Working</text>
  <circle cx="145" cy="520" r="6" fill="#22C55E"/>
  <text x="165" y="527" font-family="system-ui, -apple-system, sans-serif" font-size="18" fill="#FFFFFF">Property sourcing &amp; listing</text>
  <circle cx="145" cy="560" r="6" fill="#22C55E"/>
  <text x="165" y="567" font-family="system-ui, -apple-system, sans-serif" font-size="18" fill="#FFFFFF">Investor discovery &amp; browsing</text>
  <circle cx="145" cy="600" r="6" fill="#22C55E"/>
  <text x="165" y="607" font-family="system-ui, -apple-system, sans-serif" font-size="18" fill="#FFFFFF">Admin approval workflow</text>
  <circle cx="145" cy="640" r="6" fill="#22C55E"/>
  <text x="165" y="647" font-family="system-ui, -apple-system, sans-serif" font-size="18" fill="#FFFFFF">Service provider marketplace</text>

  <!-- Bugs -->
  <text x="130" y="700" font-family="system-ui, -apple-system, sans-serif" font-size="20" font-weight="600" fill="#F59E0B">Issues</text>
  <circle cx="145" cy="740" r="6" fill="#F59E0B"/>
  <text x="165" y="747" font-family="system-ui, -apple-system, sans-serif" font-size="18" fill="#FFFFFF">ROI calculation errors</text>
  <circle cx="145" cy="780" r="6" fill="#F59E0B"/>
  <text x="165" y="787" font-family="system-ui, -apple-system, sans-serif" font-size="18" fill="#FFFFFF">CRM sync broken</text>
  <circle cx="145" cy="820" r="6" fill="#F59E0B"/>
  <text x="165" y="827" font-family="system-ui, -apple-system, sans-serif" font-size="18" fill="#FFFFFF">Password reset missing</text>

  <!-- Missing -->
  <text x="130" y="880" font-family="system-ui, -apple-system, sans-serif" font-size="20" font-weight="600" fill="#EF4444">Missing</text>
  <circle cx="145" cy="920" r="6" fill="#EF4444"/>
  <text x="165" y="927" font-family="system-ui, -apple-system, sans-serif" font-size="18" fill="#FFFFFF">Express Interest (future)</text>
  <circle cx="145" cy="960" r="6" fill="#EF4444"/>
  <text x="165" y="967" font-family="system-ui, -apple-system, sans-serif" font-size="18" fill="#FFFFFF">Deal facilitation</text>
  <circle cx="145" cy="1000" r="6" fill="#EF4444"/>
  <text x="165" y="1007" font-family="system-ui, -apple-system, sans-serif" font-size="18" fill="#FFFFFF">Fee collection</text>

  <!-- Column 2: Develutions Building -->
  <rect x="690" y="340" width="540" height="700" fill="#1E293B" rx="16"/>
  <rect x="690" y="340" width="540" height="60" fill="url(#tealGradient)" rx="16"/>
  <rect x="690" y="390" width="540" height="10" fill="#1E293B"/>
  <text x="960" y="382" font-family="system-ui, -apple-system, sans-serif" font-size="24" font-weight="700" fill="#FFFFFF" text-anchor="middle">DEVELUTIONS REBUILD</text>
  <text x="960" y="430" font-family="system-ui, -apple-system, sans-serif" font-size="18" fill="#9CA3AF" text-anchor="middle">React 18 / Spring Boot 3.4</text>

  <!-- Progress bars -->
  <text x="720" y="480" font-family="system-ui, -apple-system, sans-serif" font-size="18" fill="#FFFFFF">Frontend (React 18)</text>
  <rect x="720" y="495" width="480" height="20" fill="#0F172A" rx="4"/>
  <rect x="720" y="495" width="384" height="20" fill="url(#tealGradient)" rx="4"/>
  <text x="1210" y="510" font-family="system-ui, -apple-system, sans-serif" font-size="14" fill="#9CA3AF">80%</text>

  <text x="720" y="550" font-family="system-ui, -apple-system, sans-serif" font-size="18" fill="#FFFFFF">Backend (Spring Boot)</text>
  <rect x="720" y="565" width="480" height="20" fill="#0F172A" rx="4"/>
  <rect x="720" y="565" width="360" height="20" fill="url(#tealGradient)" rx="4"/>
  <text x="1210" y="580" font-family="system-ui, -apple-system, sans-serif" font-size="14" fill="#9CA3AF">75%</text>

  <text x="720" y="620" font-family="system-ui, -apple-system, sans-serif" font-size="18" fill="#FFFFFF">Property Display</text>
  <rect x="720" y="635" width="480" height="20" fill="#0F172A" rx="4"/>
  <rect x="720" y="635" width="408" height="20" fill="url(#tealGradient)" rx="4"/>
  <text x="1210" y="650" font-family="system-ui, -apple-system, sans-serif" font-size="14" fill="#9CA3AF">85%</text>

  <!-- Critical Business Functions -->
  <text x="720" y="710" font-family="system-ui, -apple-system, sans-serif" font-size="20" font-weight="600" fill="#EF4444">Critical Business Functions</text>

  <text x="720" y="750" font-family="system-ui, -apple-system, sans-serif" font-size="18" fill="#FFFFFF">Financial Calculations</text>
  <rect x="720" y="765" width="480" height="20" fill="#0F172A" rx="4"/>
  <rect x="720" y="765" width="168" height="20" fill="url(#redGradient)" rx="4"/>
  <text x="1210" y="780" font-family="system-ui, -apple-system, sans-serif" font-size="14" fill="#EF4444">35%</text>

  <text x="720" y="820" font-family="system-ui, -apple-system, sans-serif" font-size="18" fill="#FFFFFF">CRM Integrations</text>
  <rect x="720" y="835" width="480" height="20" fill="#0F172A" rx="4"/>
  <text x="1210" y="850" font-family="system-ui, -apple-system, sans-serif" font-size="14" fill="#EF4444">0%</text>

  <text x="720" y="890" font-family="system-ui, -apple-system, sans-serif" font-size="18" fill="#FFFFFF">Deal Facilitation</text>
  <rect x="720" y="905" width="480" height="20" fill="#0F172A" rx="4"/>
  <text x="900" y="920" font-family="system-ui, -apple-system, sans-serif" font-size="14" fill="#64748B">NOT IN SCOPE</text>

  <text x="720" y="960" font-family="system-ui, -apple-system, sans-serif" font-size="18" fill="#FFFFFF">Fee Collection</text>
  <rect x="720" y="975" width="480" height="20" fill="#0F172A" rx="4"/>
  <text x="900" y="990" font-family="system-ui, -apple-system, sans-serif" font-size="14" fill="#64748B">NOT IN SCOPE</text>

  <!-- Column 3: Business Needs -->
  <rect x="1280" y="340" width="540" height="700" fill="#1E293B" rx="16"/>
  <rect x="1280" y="340" width="540" height="60" fill="url(#redGradient)" rx="16"/>
  <rect x="1280" y="390" width="540" height="10" fill="#1E293B"/>
  <text x="1550" y="382" font-family="system-ui, -apple-system, sans-serif" font-size="24" font-weight="700" fill="#FFFFFF" text-anchor="middle">BUSINESS NEEDS</text>
  <text x="1550" y="430" font-family="system-ui, -apple-system, sans-serif" font-size="18" fill="#9CA3AF" text-anchor="middle">To scale to R500M transactions</text>

  <!-- Required Features -->
  <text x="1310" y="480" font-family="system-ui, -apple-system, sans-serif" font-size="20" font-weight="600" fill="#FFFFFF">Must Have</text>

  <rect x="1310" y="500" width="480" height="70" fill="#EF4444" fill-opacity="0.1" rx="8" stroke="#EF4444" stroke-width="1"/>
  <text x="1330" y="530" font-family="system-ui, -apple-system, sans-serif" font-size="18" font-weight="600" fill="#EF4444">Lead Capture</text>
  <text x="1330" y="555" font-family="system-ui, -apple-system, sans-serif" font-size="14" fill="#9CA3AF">Express Interest → CRM → Follow-up</text>

  <rect x="1310" y="585" width="480" height="70" fill="#EF4444" fill-opacity="0.1" rx="8" stroke="#EF4444" stroke-width="1"/>
  <text x="1330" y="615" font-family="system-ui, -apple-system, sans-serif" font-size="18" font-weight="600" fill="#EF4444">Deal Management</text>
  <text x="1330" y="640" font-family="system-ui, -apple-system, sans-serif" font-size="14" fill="#9CA3AF">Track pipeline: Interest → Offer → Transfer</text>

  <rect x="1310" y="670" width="480" height="70" fill="#EF4444" fill-opacity="0.1" rx="8" stroke="#EF4444" stroke-width="1"/>
  <text x="1330" y="700" font-family="system-ui, -apple-system, sans-serif" font-size="18" font-weight="600" fill="#EF4444">Revenue Collection</text>
  <text x="1330" y="725" font-family="system-ui, -apple-system, sans-serif" font-size="14" fill="#9CA3AF">Invoice generation, fee tracking, commission</text>

  <rect x="1310" y="755" width="480" height="70" fill="#F59E0B" fill-opacity="0.1" rx="8" stroke="#F59E0B" stroke-width="1"/>
  <text x="1330" y="785" font-family="system-ui, -apple-system, sans-serif" font-size="18" font-weight="600" fill="#F59E0B">Accurate Calculations</text>
  <text x="1330" y="810" font-family="system-ui, -apple-system, sans-serif" font-size="14" fill="#9CA3AF">ROI, bond, rental yield matching financial model</text>

  <!-- Regulatory Requirements -->
  <text x="1310" y="870" font-family="system-ui, -apple-system, sans-serif" font-size="20" font-weight="600" fill="#FFFFFF">Regulatory Questions</text>

  <circle cx="1325" cy="905" r="6" fill="#F59E0B"/>
  <text x="1345" y="912" font-family="system-ui, -apple-system, sans-serif" font-size="16" fill="#9CA3AF">PPRA registration for 5% fee?</text>

  <circle cx="1325" cy="940" r="6" fill="#F59E0B"/>
  <text x="1345" y="947" font-family="system-ui, -apple-system, sans-serif" font-size="16" fill="#9CA3AF">FSP license for financial advice?</text>

  <circle cx="1325" cy="975" r="6" fill="#F59E0B"/>
  <text x="1345" y="982" font-family="system-ui, -apple-system, sans-serif" font-size="16" fill="#9CA3AF">FICA compliance for transactions?</text>

  <circle cx="1325" cy="1010" r="6" fill="#F59E0B"/>
  <text x="1345" y="1017" font-family="system-ui, -apple-system, sans-serif" font-size="16" fill="#9CA3AF">Sourcing agents PPRA registered?</text>

  <!-- Footer -->
  <text x="960" y="1060" font-family="system-ui, -apple-system, sans-serif" font-size="16" fill="#64748B" text-anchor="middle">Technical Due Diligence Assessment — 17 January 2026</text>
</svg>
