<svg viewBox="0 0 1920 1080" width="1920" height="1080" xmlns="http://www.w3.org/2000/svg">
  <defs>
    <linearGradient id="bgGradient" x1="0%" y1="0%" x2="100%" y2="100%">
      <stop offset="0%" style="stop-color:#0F172A"/>
      <stop offset="100%" style="stop-color:#1E293B"/>
    </linearGradient>
    <linearGradient id="accentGradient" x1="0%" y1="0%" x2="100%" y2="0%">
      <stop offset="0%" style="stop-color:#14B8A6"/>
      <stop offset="100%" style="stop-color:#22C55E"/>
    </linearGradient>
  </defs>

  <!-- Background -->
  <rect width="1920" height="1080" fill="url(#bgGradient)"/>

  <!-- Decorative curves -->
  <path d="M0,800 Q400,750 800,820 T1600,780 T1920,800" fill="none" stroke="#14B8A6" stroke-width="2" opacity="0.3"/>
  <path d="M0,850 Q500,800 1000,870 T1920,850" fill="none" stroke="#14B8A6" stroke-width="1.5" opacity="0.2"/>
  <path d="M0,900 Q600,850 1200,920 T1920,900" fill="none" stroke="#22C55E" stroke-width="1" opacity="0.15"/>

  <!-- Decorative nodes -->
  <circle cx="150" cy="150" r="4" fill="#14B8A6" opacity="0.4"/>
  <circle cx="1750" cy="200" r="3" fill="#22C55E" opacity="0.3"/>
  <circle cx="1800" cy="350" r="5" fill="#3B82F6" opacity="0.25"/>
  <circle cx="200" cy="400" r="3" fill="#14B8A6" opacity="0.3"/>

  <!-- Company badge -->
  <rect x="100" y="100" width="480" height="70" fill="#14B8A6" fill-opacity="0.15" rx="35"/>
  <text x="150" y="148" font-family="system-ui, -apple-system, sans-serif" font-size="32" font-weight="600" fill="#14B8A6">AMPERSAND INSIGHTS</text>

  <!-- Main title -->
  <text x="100" y="340" font-family="system-ui, -apple-system, sans-serif" font-size="120" font-weight="700" fill="#FFFFFF">InvestRand</text>
  <text x="100" y="480" font-family="system-ui, -apple-system, sans-serif" font-size="120" font-weight="700" fill="#FFFFFF">Discovery Brief</text>

  <!-- Accent underline -->
  <rect x="100" y="520" width="700" height="8" fill="url(#accentGradient)" rx="4"/>

  <!-- Subtitle -->
  <text x="100" y="620" font-family="system-ui, -apple-system, sans-serif" font-size="48" fill="#9CA3AF">Strategic Assessment for Partnership Evaluation</text>

  <!-- Date and context -->
  <text x="100" y="720" font-family="system-ui, -apple-system, sans-serif" font-size="36" fill="#64748B">Prepared for: Chand Subramoney</text>
  <text x="100" y="780" font-family="system-ui, -apple-system, sans-serif" font-size="36" fill="#64748B">Meeting Date: 18 January 2026</text>

  <!-- Key insight box -->
  <rect x="100" y="860" width="1200" height="140" fill="#1E293B" rx="16" stroke="#14B8A6" stroke-width="2" stroke-opacity="0.3"/>
  <text x="140" y="915" font-family="system-ui, -apple-system, sans-serif" font-size="28" font-weight="600" fill="#14B8A6">KEY THESIS</text>
  <text x="140" y="965" font-family="system-ui, -apple-system, sans-serif" font-size="32" fill="#FFFFFF">The technology problems are symptoms of a business scaling challenge, not the root cause.</text>

  <!-- Slide number -->
  <text x="1870" y="1040" font-family="system-ui, -apple-system, sans-serif" font-size="28" fill="#475569" text-anchor="end">1</text>
</svg>
